# MagicaVoxel @ Ephtracy

# group
o 

# material
mtllib apple.mtl
usemtl palette

# normals
vn -1 0 0
vn 1 0 0
vn 0 0 1
vn 0 0 -1
vn 0 -1 0
vn 0 1 0

# texcoords
vt 0.537109 0.5
vt 0.841797 0.5
vt 0.845703 0.5

# verts
v -0.2 0.1 0.3
v -0.2 0.1 0.1
v -0.2 0.1 0
v -0.2 0.3 0.3
v -0.2 0.3 0.1
v -0.2 0.4 0.3
v -0.2 0.4 0
v -0.1 0 0.3
v -0.1 0 0.2
v -0.1 0 0
v -0.1 0.1 0.4
v -0.1 0.1 0.3
v -0.1 0.1 0.2
v -0.1 0.1 0.1
v -0.1 0.1 0
v -0.1 0.1 -0.1
v -0.1 0.3 0.4
v -0.1 0.3 0.3
v -0.1 0.3 0
v -0.1 0.3 -0.1
v -0.1 0.4 0.4
v -0.1 0.4 0.3
v -0.1 0.4 0
v -0.1 0.4 -0.1
v -0.1 0.5 0.3
v -0.1 0.5 0
v 0 0.5 0.2
v 0 0.5 0.1
v 0 0.7 0.2
v 0 0.7 0.1
v 0.1 0.7 0.2
v 0.1 0.7 0.1
v 0.1 0.8 0.2
v 0.1 0.8 0.1
v 0.1 0.5 0.2
v 0.1 0.5 0.1
v 0.1 0.7 0.2
v 0.1 0.7 0.1
v 0.2 0 0.3
v 0.2 0 0.1
v 0.2 0 0
v 0.2 0.1 0.4
v 0.2 0.1 0.3
v 0.2 0.1 0.1
v 0.2 0.1 0
v 0.2 0.1 -0.1
v 0.2 0.2 0.3
v 0.2 0.2 0
v 0.2 0.3 0.4
v 0.2 0.3 0.3
v 0.2 0.4 0.4
v 0.2 0.4 0.3
v 0.2 0.4 0
v 0.2 0.4 -0.1
v 0.2 0.5 0.3
v 0.2 0.5 0
v 0.2 0.7 0.2
v 0.2 0.7 0.1
v 0.2 0.8 0.2
v 0.2 0.8 0.1
v 0.3 0.1 0.3
v 0.3 0.1 0
v 0.3 0.2 0.3
v 0.3 0.2 0
v 0.3 0.4 0.3
v 0.3 0.4 0
v -0.1 0.1 0.4
v -0.1 0.3 0.4
v -0.1 0.4 0.4
v 0.2 0.1 0.4
v 0.2 0.3 0.4
v 0.2 0.4 0.4
v -0.2 0.1 0.3
v -0.2 0.3 0.3
v -0.2 0.4 0.3
v -0.1 0 0.3
v -0.1 0.1 0.3
v -0.1 0.3 0.3
v -0.1 0.4 0.3
v -0.1 0.5 0.3
v 0 0 0.3
v 0 0.1 0.3
v 0.1 0 0.3
v 0.1 0.1 0.3
v 0.2 0 0.3
v 0.2 0.1 0.3
v 0.2 0.2 0.3
v 0.2 0.3 0.3
v 0.2 0.4 0.3
v 0.2 0.5 0.3
v 0.3 0.1 0.3
v 0.3 0.2 0.3
v 0.3 0.4 0.3
v 0 0.5 0.2
v 0 0.7 0.2
v 0.1 0.5 0.2
v 0.1 0.7 0.2
v 0.1 0.8 0.2
v 0.2 0.7 0.2
v 0.2 0.8 0.2
v 0 0.5 0.1
v 0 0.7 0.1
v 0.1 0.5 0.1
v 0.1 0.7 0.1
v 0.1 0.8 0.1
v 0.2 0.7 0.1
v 0.2 0.8 0.1
v -0.2 0.1 0
v -0.2 0.4 0
v -0.1 0 0
v -0.1 0.1 0
v -0.1 0.3 0
v -0.1 0.4 0
v -0.1 0.5 0
v 0 0.4 0
v 0.2 0 0
v 0.2 0.1 0
v 0.2 0.2 0
v 0.2 0.4 0
v 0.2 0.5 0
v 0.3 0.1 0
v 0.3 0.2 0
v 0.3 0.4 0
v -0.1 0.1 -0.1
v -0.1 0.3 -0.1
v -0.1 0.4 -0.1
v 0 0.3 -0.1
v 0 0.4 -0.1
v 0.2 0.1 -0.1
v 0.2 0.4 -0.1
v -0.1 0 0.3
v 0 0 0.3
v 0.1 0 0.3
v 0.2 0 0.3
v -0.1 0 0.2
v 0 0 0.2
v 0.1 0 0.1
v 0.2 0 0.1
v -0.1 0 0
v 0.2 0 0
v -0.1 0.1 0.4
v 0.2 0.1 0.4
v -0.2 0.1 0.3
v -0.1 0.1 0.3
v 0 0.1 0.3
v 0.1 0.1 0.3
v 0.2 0.1 0.3
v 0.3 0.1 0.3
v -0.1 0.1 0.2
v -0.2 0.1 0.1
v -0.1 0.1 0.1
v 0.2 0.1 0.1
v -0.2 0.1 0
v -0.1 0.1 0
v 0.2 0.1 0
v 0.3 0.1 0
v -0.1 0.1 -0.1
v 0.2 0.1 -0.1
v 0.1 0.7 0.2
v 0.2 0.7 0.2
v 0.1 0.7 0.1
v 0.2 0.7 0.1
v -0.1 0.4 0.4
v 0.2 0.4 0.4
v -0.2 0.4 0.3
v -0.1 0.4 0.3
v 0.2 0.4 0.3
v 0.3 0.4 0.3
v -0.2 0.4 0
v -0.1 0.4 0
v 0 0.4 0
v 0.2 0.4 0
v 0.3 0.4 0
v -0.1 0.4 -0.1
v 0 0.4 -0.1
v 0.2 0.4 -0.1
v -0.1 0.5 0.3
v 0.2 0.5 0.3
v 0 0.5 0.2
v 0.1 0.5 0.2
v 0 0.5 0.1
v 0.1 0.5 0.1
v -0.1 0.5 0
v 0.2 0.5 0
v 0 0.7 0.2
v 0.1 0.7 0.2
v 0 0.7 0.1
v 0.1 0.7 0.1
v 0.1 0.8 0.2
v 0.2 0.8 0.2
v 0.1 0.8 0.1
v 0.2 0.8 0.1

# faces
f 4/3/1 2/3/1 1/3/1
f 5/2/1 3/2/1 2/2/1
f 5/3/1 2/3/1 4/3/1
f 6/2/1 5/2/1 4/2/1
f 7/2/1 3/2/1 5/2/1
f 7/2/1 5/2/1 6/2/1
f 12/3/1 9/3/1 8/3/1
f 13/2/1 10/2/1 9/2/1
f 13/3/1 9/3/1 12/3/1
f 14/2/1 10/2/1 13/2/1
f 15/2/1 10/2/1 14/2/1
f 17/2/1 12/2/1 11/2/1
f 18/2/1 12/2/1 17/2/1
f 19/2/1 16/2/1 15/2/1
f 20/2/1 16/2/1 19/2/1
f 21/3/1 18/3/1 17/3/1
f 22/3/1 18/3/1 21/3/1
f 23/3/1 20/3/1 19/3/1
f 24/3/1 20/3/1 23/3/1
f 25/2/1 23/2/1 22/2/1
f 26/2/1 23/2/1 25/2/1
f 29/1/1 28/1/1 27/1/1
f 30/1/1 28/1/1 29/1/1
f 33/1/1 32/1/1 31/1/1
f 34/1/1 32/1/1 33/1/1
f 35/1/2 36/1/2 37/1/2
f 37/1/2 36/1/2 38/1/2
f 39/3/2 40/3/2 43/3/2
f 40/2/2 41/2/2 44/2/2
f 43/3/2 40/3/2 44/3/2
f 44/2/2 41/2/2 45/2/2
f 42/2/2 43/2/2 47/2/2
f 45/2/2 46/2/2 48/2/2
f 42/2/2 47/2/2 49/2/2
f 49/2/2 47/2/2 50/2/2
f 49/3/2 50/3/2 51/3/2
f 51/3/2 50/3/2 52/3/2
f 48/2/2 46/2/2 53/2/2
f 53/2/2 46/2/2 54/2/2
f 52/2/2 53/2/2 55/2/2
f 55/2/2 53/2/2 56/2/2
f 57/1/2 58/1/2 59/1/2
f 59/1/2 58/1/2 60/1/2
f 61/2/2 62/2/2 63/2/2
f 63/2/2 62/2/2 64/2/2
f 63/3/2 64/3/2 65/3/2
f 65/3/2 64/3/2 66/3/2
f 70/2/3 68/2/3 67/2/3
f 71/3/3 69/3/3 68/3/3
f 71/2/3 68/2/3 70/2/3
f 72/3/3 69/3/3 71/3/3
f 77/3/3 74/3/3 73/3/3
f 78/2/3 75/2/3 74/2/3
f 78/3/3 74/3/3 77/3/3
f 79/2/3 75/2/3 78/2/3
f 81/3/3 77/3/3 76/3/3
f 82/3/3 77/3/3 81/3/3
f 83/2/3 82/2/3 81/2/3
f 84/2/3 82/2/3 83/2/3
f 85/3/3 84/3/3 83/3/3
f 86/3/3 84/3/3 85/3/3
f 89/2/3 80/2/3 79/2/3
f 90/2/3 80/2/3 89/2/3
f 91/2/3 87/2/3 86/2/3
f 92/3/3 88/3/3 87/3/3
f 92/2/3 87/2/3 91/2/3
f 92/3/3 89/3/3 88/3/3
f 93/3/3 89/3/3 92/3/3
f 96/1/3 95/1/3 94/1/3
f 97/1/3 95/1/3 96/1/3
f 99/1/3 98/1/3 97/1/3
f 100/1/3 98/1/3 99/1/3
f 101/1/4 102/1/4 103/1/4
f 103/1/4 102/1/4 104/1/4
f 104/1/4 105/1/4 106/1/4
f 106/1/4 105/1/4 107/1/4
f 108/2/4 109/2/4 111/2/4
f 111/2/4 109/2/4 112/2/4
f 112/2/4 109/2/4 113/2/4
f 113/2/4 114/2/4 115/2/4
f 110/2/4 111/2/4 116/2/4
f 116/2/4 111/2/4 117/2/4
f 115/2/4 114/2/4 119/2/4
f 119/2/4 114/2/4 120/2/4
f 117/2/4 118/2/4 121/2/4
f 118/3/4 119/3/4 122/3/4
f 121/2/4 118/2/4 122/2/4
f 122/3/4 119/3/4 123/3/4
f 124/2/4 125/2/4 127/2/4
f 125/3/4 126/3/4 127/3/4
f 127/3/4 126/3/4 128/3/4
f 124/2/4 127/2/4 129/2/4
f 127/2/4 128/2/4 129/2/4
f 129/2/4 128/2/4 130/2/4
f 135/3/5 132/3/5 131/3/5
f 136/2/5 133/2/5 132/2/5
f 136/3/5 132/3/5 135/3/5
f 137/3/5 134/3/5 133/3/5
f 137/2/5 133/2/5 136/2/5
f 137/2/5 136/2/5 135/2/5
f 138/3/5 134/3/5 137/3/5
f 139/2/5 137/2/5 135/2/5
f 139/2/5 138/2/5 137/2/5
f 140/2/5 138/2/5 139/2/5
f 144/2/5 142/2/5 141/2/5
f 145/2/5 142/2/5 144/2/5
f 146/2/5 142/2/5 145/2/5
f 147/2/5 142/2/5 146/2/5
f 149/3/5 144/3/5 143/3/5
f 150/3/5 149/3/5 143/3/5
f 151/3/5 149/3/5 150/3/5
f 152/2/5 148/2/5 147/2/5
f 153/2/5 151/2/5 150/2/5
f 154/2/5 151/2/5 153/2/5
f 155/2/5 148/2/5 152/2/5
f 156/2/5 148/2/5 155/2/5
f 157/2/5 155/2/5 154/2/5
f 158/2/5 155/2/5 157/2/5
f 161/1/5 160/1/5 159/1/5
f 162/1/5 160/1/5 161/1/5
f 163/3/6 164/3/6 166/3/6
f 166/3/6 164/3/6 167/3/6
f 165/2/6 166/2/6 169/2/6
f 169/2/6 166/2/6 170/2/6
f 167/3/6 168/3/6 172/3/6
f 172/3/6 168/3/6 173/3/6
f 170/3/6 171/3/6 174/3/6
f 171/2/6 172/2/6 175/2/6
f 174/3/6 171/3/6 175/3/6
f 175/2/6 172/2/6 176/2/6
f 177/2/6 178/2/6 179/2/6
f 179/2/6 178/2/6 180/2/6
f 177/2/6 179/2/6 181/2/6
f 180/2/6 178/2/6 182/2/6
f 177/2/6 181/2/6 183/2/6
f 181/2/6 182/2/6 183/2/6
f 182/2/6 178/2/6 184/2/6
f 183/2/6 182/2/6 184/2/6
f 185/1/6 186/1/6 187/1/6
f 187/1/6 186/1/6 188/1/6
f 189/1/6 190/1/6 191/1/6
f 191/1/6 190/1/6 192/1/6
