# MagicaVoxel @ Ephtracy

# group
o 

# material
mtllib hero_left_leg.mtl
usemtl palette

# normals
vn -1 0 0
vn 1 0 0
vn 0 0 1
vn 0 0 -1
vn 0 -1 0
vn 0 1 0

# texcoords
vt 0.958984 0.5
vt 0.986328 0.5

# verts
v 0.1 0 0.3
v 0.1 0 -0.5
v 0.1 0.2 0.3
v 0.1 0.2 0.0999998
v 0.1 0.2 -0.2
v 0.1 0.2 -0.4
v 0.1 0.3 0.0999998
v 0.1 0.3 -0.2
v 0.1 0.3 -0.4
v 0.1 0.3 -0.5
v 0.1 0.5 -0.2
v 0.1 0.5 -0.3
v 0.1 0.8 -0.5
v 0.1 0.8 -0.6
v 0.1 1 -0.2
v 0.1 1 -0.3
v 0.1 1.3 -0.2
v 0.1 1.3 -0.3
v 0.1 1.9 -0.3
v 0.1 1.9 -0.6
v 0.4 0 0.3
v 0.4 0 -0.5
v 0.4 0.2 0.3
v 0.4 0.2 0.0999998
v 0.4 0.2 -0.2
v 0.4 0.2 -0.4
v 0.4 0.3 0.0999998
v 0.4 0.3 -0.2
v 0.4 0.3 -0.4
v 0.4 0.3 -0.5
v 0.4 0.5 -0.2
v 0.4 0.5 -0.3
v 0.4 0.8 -0.5
v 0.4 0.8 -0.6
v 0.4 1 -0.2
v 0.4 1 -0.3
v 0.4 1.3 -0.2
v 0.4 1.3 -0.3
v 0.4 1.9 -0.3
v 0.4 1.9 -0.6
v 0.1 0 0.3
v 0.1 0.2 0.3
v 0.4 0 0.3
v 0.4 0.2 0.3
v 0.1 0.2 0.0999998
v 0.1 0.3 0.0999998
v 0.4 0.2 0.0999998
v 0.4 0.3 0.0999998
v 0.1 0.3 -0.2
v 0.1 0.5 -0.2
v 0.1 1 -0.2
v 0.1 1.3 -0.2
v 0.4 0.3 -0.2
v 0.4 0.5 -0.2
v 0.4 1 -0.2
v 0.4 1.3 -0.2
v 0.1 0.5 -0.3
v 0.1 1 -0.3
v 0.1 1.3 -0.3
v 0.1 1.9 -0.3
v 0.4 0.5 -0.3
v 0.4 1 -0.3
v 0.4 1.3 -0.3
v 0.4 1.9 -0.3
v 0.1 0 -0.5
v 0.1 0.3 -0.5
v 0.1 0.8 -0.5
v 0.4 0 -0.5
v 0.4 0.3 -0.5
v 0.4 0.8 -0.5
v 0.1 0.8 -0.6
v 0.1 1.9 -0.6
v 0.4 0.8 -0.6
v 0.4 1.9 -0.6
v 0.1 0 0.3
v 0.4 0 0.3
v 0.1 0 -0.5
v 0.4 0 -0.5
v 0.1 0.8 -0.5
v 0.4 0.8 -0.5
v 0.1 0.8 -0.6
v 0.4 0.8 -0.6
v 0.1 1 -0.2
v 0.4 1 -0.2
v 0.1 1 -0.3
v 0.4 1 -0.3
v 0.1 0.2 0.3
v 0.4 0.2 0.3
v 0.1 0.2 0.0999998
v 0.4 0.2 0.0999998
v 0.1 0.3 0.0999998
v 0.4 0.3 0.0999998
v 0.1 0.3 -0.2
v 0.4 0.3 -0.2
v 0.1 0.5 -0.2
v 0.4 0.5 -0.2
v 0.1 0.5 -0.3
v 0.4 0.5 -0.3
v 0.1 1.3 -0.2
v 0.4 1.3 -0.2
v 0.1 1.3 -0.3
v 0.4 1.3 -0.3
v 0.1 1.9 -0.3
v 0.4 1.9 -0.3
v 0.1 1.9 -0.6
v 0.4 1.9 -0.6

# faces
f 3/1/1 2/1/1 1/1/1
f 4/1/1 2/1/1 3/1/1
f 5/1/1 2/1/1 4/1/1
f 6/1/1 2/1/1 5/1/1
f 7/1/1 5/1/1 4/1/1
f 8/2/1 6/2/1 5/2/1
f 8/1/1 5/1/1 7/1/1
f 9/1/1 2/1/1 6/1/1
f 9/2/1 6/2/1 8/2/1
f 10/1/1 2/1/1 9/1/1
f 11/2/1 9/2/1 8/2/1
f 11/2/1 10/2/1 9/2/1
f 12/2/1 10/2/1 11/2/1
f 13/2/1 10/2/1 12/2/1
f 16/2/1 13/2/1 12/2/1
f 16/2/1 14/2/1 13/2/1
f 17/2/1 16/2/1 15/2/1
f 18/2/1 14/2/1 16/2/1
f 18/2/1 16/2/1 17/2/1
f 19/2/1 14/2/1 18/2/1
f 20/2/1 14/2/1 19/2/1
f 21/1/2 22/1/2 23/1/2
f 23/1/2 22/1/2 24/1/2
f 24/1/2 22/1/2 25/1/2
f 25/1/2 22/1/2 26/1/2
f 24/1/2 25/1/2 27/1/2
f 25/2/2 26/2/2 28/2/2
f 27/1/2 25/1/2 28/1/2
f 26/1/2 22/1/2 29/1/2
f 28/2/2 26/2/2 29/2/2
f 29/1/2 22/1/2 30/1/2
f 28/2/2 29/2/2 31/2/2
f 29/2/2 30/2/2 31/2/2
f 31/2/2 30/2/2 32/2/2
f 32/2/2 30/2/2 33/2/2
f 32/2/2 33/2/2 36/2/2
f 33/2/2 34/2/2 36/2/2
f 35/2/2 36/2/2 37/2/2
f 36/2/2 34/2/2 38/2/2
f 37/2/2 36/2/2 38/2/2
f 38/2/2 34/2/2 39/2/2
f 39/2/2 34/2/2 40/2/2
f 43/1/3 42/1/3 41/1/3
f 44/1/3 42/1/3 43/1/3
f 47/1/3 46/1/3 45/1/3
f 48/1/3 46/1/3 47/1/3
f 53/2/3 50/2/3 49/2/3
f 54/2/3 50/2/3 53/2/3
f 55/2/3 52/2/3 51/2/3
f 56/2/3 52/2/3 55/2/3
f 61/2/3 58/2/3 57/2/3
f 62/2/3 58/2/3 61/2/3
f 63/2/3 60/2/3 59/2/3
f 64/2/3 60/2/3 63/2/3
f 65/1/4 66/1/4 68/1/4
f 66/2/4 67/2/4 69/2/4
f 68/1/4 66/1/4 69/1/4
f 69/2/4 67/2/4 70/2/4
f 71/2/4 72/2/4 73/2/4
f 73/2/4 72/2/4 74/2/4
f 77/1/5 76/1/5 75/1/5
f 78/1/5 76/1/5 77/1/5
f 81/2/5 80/2/5 79/2/5
f 82/2/5 80/2/5 81/2/5
f 85/2/5 84/2/5 83/2/5
f 86/2/5 84/2/5 85/2/5
f 87/1/6 88/1/6 89/1/6
f 89/1/6 88/1/6 90/1/6
f 91/1/6 92/1/6 93/1/6
f 93/1/6 92/1/6 94/1/6
f 95/2/6 96/2/6 97/2/6
f 97/2/6 96/2/6 98/2/6
f 99/2/6 100/2/6 101/2/6
f 101/2/6 100/2/6 102/2/6
f 103/2/6 104/2/6 105/2/6
f 105/2/6 104/2/6 106/2/6
