# MagicaVoxel @ Ephtracy

# group
o 

# material
mtllib MazeBlock_norm_03.mtl
usemtl palette

# normals
vn -1 0 0
vn 1 0 0
vn 0 0 1
vn 0 0 -1
vn 0 -1 0
vn 0 1 0

# texcoords
vt 0.337891 0.5
vt 0.341797 0.5
vt 0.369141 0.5
vt 0.373047 0.5
vt 0.400391 0.5
vt 0.404297 0.5

# verts
v -0.8 0 0.7
v -0.8 0 -0.6
v -0.8 0.2 0.1
v -0.8 0.2 -0.2
v -0.8 0.3 0.2
v -0.8 0.3 0.1
v -0.8 0.3 5.96046e-008
v -0.8 0.3 -0.2
v -0.8 0.4 0.1
v -0.8 0.4 5.96046e-008
v -0.8 0.5 0.2
v -0.8 0.5 0.1
v -0.8 0.9 0.3
v -0.8 0.9 0.2
v -0.8 0.9 -0.3
v -0.8 0.9 -0.4
v -0.8 1 -0.2
v -0.8 1 -0.3
v -0.8 1.1 0.6
v -0.8 1.1 0.5
v -0.8 1.1 -0.2
v -0.8 1.1 -0.4
v -0.8 1.2 0.2
v -0.8 1.2 0.1
v -0.8 1.3 0.3
v -0.8 1.3 0.2
v -0.8 1.4 0.6
v -0.8 1.4 0.5
v -0.8 1.4 0.2
v -0.8 1.4 0.1
v -0.8 1.8 -0.2
v -0.8 1.8 -0.4
v -0.8 1.9 -0.2
v -0.8 1.9 -0.3
v -0.8 2 0.4
v -0.8 2 0.3
v -0.8 2 -0.4
v -0.8 2 -0.5
v -0.8 2.1 -0.3
v -0.8 2.1 -0.4
v -0.8 2.3 -0.4
v -0.8 2.3 -0.5
v -0.8 2.4 0.4
v -0.8 2.4 0.3
v -0.8 2.5 5.96046e-008
v -0.8 2.5 -0.0999999
v -0.8 2.6 0.3
v -0.8 2.6 0.2
v -0.8 2.7 0.4
v -0.8 2.7 0.3
v -0.8 2.8 0.4
v -0.8 2.8 0.2
v -0.8 2.8 5.96046e-008
v -0.8 2.8 -0.0999999
v -0.8 3.2 0.7
v -0.8 3.2 -0.6
v -0.7 0 0.8
v -0.7 0 0.7
v -0.7 0 -0.6
v -0.7 0 -0.7
v -0.7 3.2 0.8
v -0.7 3.2 0.7
v -0.7 3.2 -0.6
v -0.7 3.2 -0.7
v 0.6 0 0.8
v 0.6 0 0.7
v 0.6 0 -0.6
v 0.6 0 -0.7
v 0.6 3.2 0.8
v 0.6 3.2 0.7
v 0.6 3.2 -0.6
v 0.6 3.2 -0.7
v 0.7 0 0.7
v 0.7 0 -0.6
v 0.7 0.2 0.3
v 0.7 0.2 5.96046e-008
v 0.7 0.3 0.3
v 0.7 0.3 0.1
v 0.7 0.3 5.96046e-008
v 0.7 0.3 -0.0999999
v 0.7 0.4 0.1
v 0.7 0.4 5.96046e-008
v 0.7 0.5 5.96046e-008
v 0.7 0.5 -0.0999999
v 0.7 0.9 0.5
v 0.7 0.9 0.4
v 0.7 0.9 -0.0999999
v 0.7 0.9 -0.2
v 0.7 1 0.4
v 0.7 1 0.3
v 0.7 1.1 0.5
v 0.7 1.1 0.3
v 0.7 1.1 -0.4
v 0.7 1.1 -0.5
v 0.7 1.2 5.96046e-008
v 0.7 1.2 -0.0999999
v 0.7 1.3 -0.0999999
v 0.7 1.3 -0.2
v 0.7 1.4 5.96046e-008
v 0.7 1.4 -0.0999999
v 0.7 1.4 -0.4
v 0.7 1.4 -0.5
v 0.7 1.8 0.5
v 0.7 1.8 0.3
v 0.7 1.9 0.4
v 0.7 1.9 0.3
v 0.7 2 0.6
v 0.7 2 0.5
v 0.7 2 -0.2
v 0.7 2 -0.3
v 0.7 2.1 0.5
v 0.7 2.1 0.4
v 0.7 2.3 0.6
v 0.7 2.3 0.5
v 0.7 2.4 -0.2
v 0.7 2.4 -0.3
v 0.7 2.5 0.2
v 0.7 2.5 0.1
v 0.7 2.6 -0.0999999
v 0.7 2.6 -0.2
v 0.7 2.7 -0.2
v 0.7 2.7 -0.3
v 0.7 2.8 0.2
v 0.7 2.8 0.1
v 0.7 2.8 -0.0999999
v 0.7 2.8 -0.2
v 0.7 2.9 -0.2
v 0.7 2.9 -0.3
v 0.7 3.2 0.7
v 0.7 3.2 -0.6
v -0.7 0 0.8
v -0.7 3.2 0.8
v -0.5 0.1 0.8
v -0.5 0.4 0.8
v -0.5 2.7 0.8
v -0.5 2.8 0.8
v -0.4 0.1 0.8
v -0.4 0.3 0.8
v -0.4 1.3 0.8
v -0.4 1.6 0.8
v -0.4 2.3 0.8
v -0.4 2.5 0.8
v -0.4 2.8 0.8
v -0.4 2.9 0.8
v -0.3 0.3 0.8
v -0.3 0.4 0.8
v -0.3 1 0.8
v -0.3 1.3 0.8
v -0.3 1.4 0.8
v -0.3 1.6 0.8
v -0.3 2.3 0.8
v -0.3 2.5 0.8
v -0.3 2.7 0.8
v -0.3 2.9 0.8
v -0.2 1 0.8
v -0.2 1.4 0.8
v -0.2 2.5 0.8
v -0.2 2.7 0.8
v -0.1 0 0.8
v -0.1 0.1 0.8
v -5.96046e-008 0 0.8
v -5.96046e-008 0.1 0.8
v -5.96046e-008 0.9 0.8
v -5.96046e-008 1 0.8
v 0.0999999 1 0.8
v 0.0999999 1.1 0.8
v 0.0999999 2 0.8
v 0.0999999 2.4 0.8
v 0.2 0.9 0.8
v 0.2 1.1 0.8
v 0.2 1.5 0.8
v 0.2 2 0.8
v 0.2 2.1 0.8
v 0.2 2.4 0.8
v 0.3 0.4 0.8
v 0.3 0.7 0.8
v 0.3 1.5 0.8
v 0.3 2.1 0.8
v 0.4 0.4 0.8
v 0.4 0.7 0.8
v 0.6 0 0.8
v 0.6 3.2 0.8
v -0.8 0 0.7
v -0.8 3.2 0.7
v -0.7 0 0.7
v -0.7 3.2 0.7
v 0.6 0 0.7
v 0.6 3.2 0.7
v 0.7 0 0.7
v 0.7 3.2 0.7
v -0.8 0 -0.6
v -0.8 3.2 -0.6
v -0.7 0 -0.6
v -0.7 3.2 -0.6
v 0.6 0 -0.6
v 0.6 3.2 -0.6
v 0.7 0 -0.6
v 0.7 3.2 -0.6
v -0.7 0 -0.7
v -0.7 3.2 -0.7
v -0.5 0.4 -0.7
v -0.5 0.7 -0.7
v -0.4 0.4 -0.7
v -0.4 0.7 -0.7
v -0.4 1.5 -0.7
v -0.4 2.1 -0.7
v -0.3 0.9 -0.7
v -0.3 1.1 -0.7
v -0.3 1.5 -0.7
v -0.3 2 -0.7
v -0.3 2.1 -0.7
v -0.3 2.5 -0.7
v -0.2 1 -0.7
v -0.2 1.1 -0.7
v -0.2 2 -0.7
v -0.2 2.4 -0.7
v -0.2 2.5 -0.7
v -0.2 2.6 -0.7
v -0.1 0 -0.7
v -0.1 0.1 -0.7
v -0.1 0.9 -0.7
v -0.1 1 -0.7
v -0.1 2.4 -0.7
v -0.1 2.6 -0.7
v -5.96046e-008 0 -0.7
v -5.96046e-008 0.1 -0.7
v 0.0999999 1 -0.7
v 0.0999999 1.4 -0.7
v 0.2 0.3 -0.7
v 0.2 0.4 -0.7
v 0.2 1 -0.7
v 0.2 1.3 -0.7
v 0.2 1.4 -0.7
v 0.2 1.6 -0.7
v 0.2 2.3 -0.7
v 0.2 2.7 -0.7
v 0.3 0.1 -0.7
v 0.3 0.3 -0.7
v 0.3 1.3 -0.7
v 0.3 1.6 -0.7
v 0.3 2.3 -0.7
v 0.3 2.7 -0.7
v 0.3 2.9 -0.7
v 0.4 0.1 -0.7
v 0.4 0.4 -0.7
v 0.4 2.7 -0.7
v 0.4 2.9 -0.7
v 0.6 0 -0.7
v 0.6 3.2 -0.7
v -0.7 0 0.8
v -0.1 0 0.8
v -5.96046e-008 0 0.8
v 0.6 0 0.8
v -0.8 0 0.7
v -0.7 0 0.7
v -0.1 0 0.7
v -5.96046e-008 0 0.7
v 0.6 0 0.7
v 0.7 0 0.7
v -0.8 0 -0.6
v -0.7 0 -0.6
v -0.1 0 -0.6
v -5.96046e-008 0 -0.6
v 0.6 0 -0.6
v 0.7 0 -0.6
v -0.7 0 -0.7
v -0.1 0 -0.7
v -5.96046e-008 0 -0.7
v 0.6 0 -0.7
v -0.7 3.2 0.8
v 0.6 3.2 0.8
v -0.8 3.2 0.7
v -0.7 3.2 0.7
v 0.6 3.2 0.7
v 0.7 3.2 0.7
v -0.6 3.2 0.6
v 0.5 3.2 0.6
v -0.5 3.2 0.5
v 0.4 3.2 0.5
v -0.4 3.2 0.4
v 0.3 3.2 0.4
v -0.3 3.2 0.3
v 0.2 3.2 0.3
v -0.2 3.2 0.2
v 0.0999999 3.2 0.2
v -0.1 3.2 0.1
v -5.96046e-008 3.2 0.1
v -0.1 3.2 5.96046e-008
v -5.96046e-008 3.2 5.96046e-008
v -0.2 3.2 -0.0999999
v 0.0999999 3.2 -0.0999999
v -0.3 3.2 -0.2
v 0.2 3.2 -0.2
v -0.4 3.2 -0.3
v 0.3 3.2 -0.3
v -0.5 3.2 -0.4
v 0.4 3.2 -0.4
v -0.6 3.2 -0.5
v 0.5 3.2 -0.5
v -0.8 3.2 -0.6
v -0.7 3.2 -0.6
v 0.6 3.2 -0.6
v 0.7 3.2 -0.6
v -0.7 3.2 -0.7
v 0.6 3.2 -0.7

# faces
f 3/4/1 2/4/1 1/4/1
f 4/4/1 2/4/1 3/4/1
f 5/4/1 3/4/1 1/4/1
f 6/6/1 4/6/1 3/6/1
f 6/4/1 3/4/1 5/4/1
f 7/6/1 4/6/1 6/6/1
f 8/4/1 2/4/1 4/4/1
f 8/6/1 4/6/1 7/6/1
f 9/6/1 7/6/1 6/6/1
f 9/6/1 6/6/1 5/6/1
f 10/4/1 8/4/1 7/4/1
f 10/6/1 7/6/1 9/6/1
f 11/4/1 5/4/1 1/4/1
f 11/6/1 9/6/1 5/6/1
f 12/4/1 10/4/1 9/4/1
f 12/6/1 9/6/1 11/6/1
f 13/4/1 11/4/1 1/4/1
f 13/4/1 12/4/1 11/4/1
f 14/4/1 12/4/1 13/4/1
f 15/4/1 2/4/1 8/4/1
f 15/4/1 12/4/1 14/4/1
f 15/4/1 8/4/1 10/4/1
f 15/4/1 10/4/1 12/4/1
f 16/4/1 2/4/1 15/4/1
f 17/4/1 15/4/1 14/4/1
f 18/6/1 16/6/1 15/6/1
f 18/4/1 15/4/1 17/4/1
f 19/4/1 13/4/1 1/4/1
f 20/4/1 13/4/1 19/4/1
f 21/4/1 17/4/1 14/4/1
f 21/6/1 18/6/1 17/6/1
f 22/6/1 16/6/1 18/6/1
f 22/6/1 18/6/1 21/6/1
f 22/4/1 2/4/1 16/4/1
f 23/6/1 14/6/1 13/6/1
f 23/4/1 21/4/1 14/4/1
f 23/4/1 22/4/1 21/4/1
f 24/4/1 22/4/1 23/4/1
f 25/4/1 13/4/1 20/4/1
f 25/6/1 23/6/1 13/6/1
f 25/6/1 24/6/1 23/6/1
f 26/6/1 24/6/1 25/6/1
f 27/5/1 20/5/1 19/5/1
f 27/4/1 19/4/1 1/4/1
f 28/4/1 26/4/1 25/4/1
f 28/5/1 20/5/1 27/5/1
f 28/4/1 25/4/1 20/4/1
f 29/6/1 24/6/1 26/6/1
f 29/4/1 26/4/1 28/4/1
f 30/4/1 22/4/1 24/4/1
f 30/6/1 24/6/1 29/6/1
f 31/4/1 28/4/1 27/4/1
f 31/4/1 22/4/1 30/4/1
f 31/4/1 30/4/1 29/4/1
f 31/4/1 29/4/1 28/4/1
f 32/4/1 2/4/1 22/4/1
f 32/4/1 22/4/1 31/4/1
f 33/4/1 31/4/1 27/4/1
f 33/6/1 32/6/1 31/6/1
f 34/6/1 32/6/1 33/6/1
f 35/4/1 33/4/1 27/4/1
f 35/4/1 34/4/1 33/4/1
f 36/4/1 34/4/1 35/4/1
f 37/4/1 2/4/1 32/4/1
f 37/6/1 32/6/1 34/6/1
f 38/4/1 2/4/1 37/4/1
f 39/4/1 34/4/1 36/4/1
f 39/6/1 37/6/1 34/6/1
f 39/6/1 38/6/1 37/6/1
f 40/6/1 38/6/1 39/6/1
f 41/4/1 40/4/1 39/4/1
f 41/6/1 38/6/1 40/6/1
f 42/4/1 2/4/1 38/4/1
f 42/6/1 38/6/1 41/6/1
f 43/6/1 36/6/1 35/6/1
f 43/4/1 35/4/1 27/4/1
f 44/4/1 41/4/1 39/4/1
f 44/6/1 36/6/1 43/6/1
f 44/4/1 42/4/1 41/4/1
f 44/4/1 39/4/1 36/4/1
f 45/4/1 44/4/1 43/4/1
f 45/4/1 42/4/1 44/4/1
f 46/4/1 42/4/1 45/4/1
f 47/4/1 45/4/1 43/4/1
f 48/4/1 45/4/1 47/4/1
f 49/4/1 43/4/1 27/4/1
f 49/4/1 47/4/1 43/4/1
f 50/5/1 48/5/1 47/5/1
f 50/4/1 47/4/1 49/4/1
f 51/4/1 49/4/1 27/4/1
f 51/5/1 50/5/1 49/5/1
f 52/4/1 45/4/1 48/4/1
f 52/5/1 50/5/1 51/5/1
f 52/5/1 48/5/1 50/5/1
f 53/6/1 46/6/1 45/6/1
f 53/4/1 45/4/1 52/4/1
f 54/4/1 42/4/1 46/4/1
f 54/6/1 46/6/1 53/6/1
f 55/4/1 51/4/1 27/4/1
f 55/4/1 27/4/1 1/4/1
f 55/4/1 54/4/1 53/4/1
f 55/4/1 52/4/1 51/4/1
f 55/4/1 53/4/1 52/4/1
f 56/4/1 42/4/1 54/4/1
f 56/4/1 54/4/1 55/4/1
f 56/4/1 2/4/1 42/4/1
f 61/4/1 58/4/1 57/4/1
f 62/4/1 58/4/1 61/4/1
f 63/4/1 60/4/1 59/4/1
f 64/4/1 60/4/1 63/4/1
f 65/4/2 66/4/2 69/4/2
f 69/4/2 66/4/2 70/4/2
f 67/4/2 68/4/2 71/4/2
f 71/4/2 68/4/2 72/4/2
f 73/4/2 74/4/2 75/4/2
f 75/4/2 74/4/2 76/4/2
f 73/4/2 75/4/2 77/4/2
f 75/6/2 76/6/2 77/6/2
f 77/6/2 76/6/2 78/6/2
f 76/4/2 74/4/2 79/4/2
f 78/6/2 76/6/2 79/6/2
f 79/4/2 74/4/2 80/4/2
f 77/4/2 78/4/2 81/4/2
f 78/6/2 79/6/2 81/6/2
f 79/6/2 80/6/2 81/6/2
f 81/6/2 80/6/2 82/6/2
f 81/4/2 82/4/2 83/4/2
f 82/6/2 80/6/2 83/6/2
f 80/4/2 74/4/2 84/4/2
f 83/6/2 80/6/2 84/6/2
f 81/4/2 83/4/2 85/4/2
f 73/4/2 77/4/2 85/4/2
f 83/4/2 84/4/2 85/4/2
f 77/4/2 81/4/2 85/4/2
f 85/4/2 84/4/2 86/4/2
f 84/4/2 74/4/2 87/4/2
f 86/4/2 84/4/2 87/4/2
f 87/4/2 74/4/2 88/4/2
f 85/6/2 86/6/2 89/6/2
f 86/4/2 87/4/2 89/4/2
f 89/4/2 87/4/2 90/4/2
f 73/4/2 85/4/2 91/4/2
f 85/6/2 89/6/2 91/6/2
f 89/6/2 90/6/2 91/6/2
f 90/4/2 87/4/2 92/4/2
f 91/6/2 90/6/2 92/6/2
f 88/4/2 74/4/2 93/4/2
f 93/4/2 74/4/2 94/4/2
f 92/4/2 87/4/2 95/4/2
f 91/4/2 92/4/2 95/4/2
f 87/6/2 88/6/2 96/6/2
f 95/4/2 87/4/2 96/4/2
f 95/6/2 96/6/2 97/6/2
f 96/6/2 88/6/2 97/6/2
f 88/4/2 93/4/2 98/4/2
f 97/6/2 88/6/2 98/6/2
f 91/4/2 95/4/2 99/4/2
f 95/6/2 97/6/2 99/6/2
f 97/4/2 98/4/2 100/4/2
f 99/6/2 97/6/2 100/6/2
f 98/4/2 93/4/2 101/4/2
f 100/4/2 98/4/2 101/4/2
f 93/5/2 94/5/2 101/5/2
f 94/4/2 74/4/2 102/4/2
f 101/5/2 94/5/2 102/5/2
f 100/4/2 101/4/2 103/4/2
f 73/4/2 91/4/2 103/4/2
f 101/4/2 102/4/2 103/4/2
f 91/4/2 99/4/2 103/4/2
f 99/4/2 100/4/2 103/4/2
f 103/4/2 102/4/2 104/4/2
f 103/6/2 104/6/2 105/6/2
f 104/4/2 102/4/2 106/4/2
f 105/6/2 104/6/2 106/6/2
f 73/4/2 103/4/2 107/4/2
f 103/6/2 105/6/2 108/6/2
f 107/4/2 103/4/2 108/4/2
f 106/4/2 102/4/2 109/4/2
f 105/4/2 106/4/2 109/4/2
f 109/4/2 102/4/2 110/4/2
f 108/6/2 105/6/2 111/6/2
f 107/6/2 108/6/2 111/6/2
f 105/4/2 109/4/2 112/4/2
f 111/6/2 105/6/2 112/6/2
f 73/4/2 107/4/2 113/4/2
f 107/6/2 111/6/2 113/6/2
f 111/4/2 112/4/2 114/4/2
f 113/6/2 111/6/2 114/6/2
f 112/4/2 109/4/2 115/4/2
f 114/4/2 112/4/2 115/4/2
f 113/4/2 114/4/2 115/4/2
f 109/6/2 110/6/2 115/6/2
f 110/4/2 102/4/2 116/4/2
f 115/6/2 110/6/2 116/6/2
f 113/4/2 115/4/2 117/4/2
f 115/4/2 116/4/2 117/4/2
f 117/4/2 116/4/2 118/4/2
f 118/4/2 116/4/2 119/4/2
f 119/4/2 116/4/2 120/4/2
f 119/5/2 120/5/2 121/5/2
f 120/4/2 116/4/2 121/4/2
f 116/4/2 102/4/2 122/4/2
f 121/4/2 116/4/2 122/4/2
f 113/4/2 117/4/2 123/4/2
f 117/6/2 118/6/2 123/6/2
f 118/4/2 119/4/2 124/4/2
f 123/6/2 118/6/2 124/6/2
f 119/5/2 121/5/2 125/5/2
f 124/4/2 119/4/2 125/4/2
f 121/5/2 122/5/2 125/5/2
f 125/5/2 122/5/2 126/5/2
f 123/4/2 124/4/2 127/4/2
f 126/5/2 122/5/2 127/5/2
f 125/4/2 126/4/2 127/4/2
f 124/4/2 125/4/2 127/4/2
f 122/4/2 102/4/2 128/4/2
f 127/5/2 122/5/2 128/5/2
f 113/4/2 123/4/2 129/4/2
f 73/4/2 113/4/2 129/4/2
f 127/4/2 128/4/2 129/4/2
f 123/4/2 127/4/2 129/4/2
f 102/4/2 74/4/2 130/4/2
f 129/4/2 128/4/2 130/4/2
f 128/4/2 102/4/2 130/4/2
f 133/4/3 132/4/3 131/4/3
f 134/4/3 132/4/3 133/4/3
f 135/4/3 132/4/3 134/4/3
f 136/4/3 132/4/3 135/4/3
f 137/4/3 133/4/3 131/4/3
f 137/6/3 134/6/3 133/6/3
f 138/6/3 134/6/3 137/6/3
f 139/4/3 135/4/3 134/4/3
f 140/4/3 135/4/3 139/4/3
f 141/4/3 135/4/3 140/4/3
f 142/4/3 135/4/3 141/4/3
f 143/4/3 132/4/3 136/4/3
f 143/6/3 136/6/3 135/6/3
f 144/4/3 132/4/3 143/4/3
f 145/6/3 134/6/3 138/6/3
f 145/4/3 138/4/3 137/4/3
f 146/4/3 139/4/3 134/4/3
f 146/6/3 134/6/3 145/6/3
f 147/4/3 139/4/3 146/4/3
f 148/6/3 140/6/3 139/6/3
f 148/4/3 139/4/3 147/4/3
f 149/6/3 140/6/3 148/6/3
f 150/4/3 141/4/3 140/4/3
f 150/6/3 140/6/3 149/6/3
f 151/6/3 142/6/3 141/6/3
f 151/4/3 141/4/3 150/4/3
f 152/4/3 135/4/3 142/4/3
f 152/6/3 142/6/3 151/6/3
f 153/6/3 144/6/3 143/6/3
f 153/4/3 135/4/3 152/4/3
f 153/6/3 143/6/3 135/6/3
f 154/4/3 132/4/3 144/4/3
f 154/6/3 144/6/3 153/6/3
f 155/4/3 147/4/3 146/4/3
f 155/6/3 149/6/3 148/6/3
f 155/6/3 148/6/3 147/6/3
f 155/4/3 146/4/3 145/4/3
f 156/4/3 151/4/3 150/4/3
f 156/6/3 149/6/3 155/6/3
f 156/4/3 150/4/3 149/4/3
f 156/4/3 152/4/3 151/4/3
f 157/6/3 153/6/3 152/6/3
f 157/4/3 152/4/3 156/4/3
f 158/4/3 154/4/3 153/4/3
f 158/6/3 153/6/3 157/6/3
f 159/4/3 155/4/3 145/4/3
f 159/4/3 157/4/3 156/4/3
f 159/4/3 158/4/3 157/4/3
f 159/4/3 145/4/3 137/4/3
f 159/4/3 156/4/3 155/4/3
f 159/4/3 137/4/3 131/4/3
f 160/4/3 158/4/3 159/4/3
f 161/6/3 160/6/3 159/6/3
f 162/4/3 158/4/3 160/4/3
f 162/6/3 160/6/3 161/6/3
f 163/4/3 158/4/3 162/4/3
f 164/4/3 158/4/3 163/4/3
f 165/5/3 164/5/3 163/5/3
f 165/4/3 158/4/3 164/4/3
f 166/4/3 158/4/3 165/4/3
f 167/4/3 158/4/3 166/4/3
f 168/4/3 158/4/3 167/4/3
f 169/4/3 162/4/3 161/4/3
f 169/4/3 163/4/3 162/4/3
f 169/5/3 165/5/3 163/5/3
f 169/5/3 166/5/3 165/5/3
f 170/4/3 167/4/3 166/4/3
f 170/5/3 166/5/3 169/5/3
f 171/4/3 167/4/3 170/4/3
f 172/6/3 168/6/3 167/6/3
f 172/4/3 167/4/3 171/4/3
f 173/6/3 168/6/3 172/6/3
f 174/4/3 158/4/3 168/4/3
f 174/6/3 168/6/3 173/6/3
f 175/4/3 171/4/3 170/4/3
f 175/4/3 169/4/3 161/4/3
f 175/4/3 170/4/3 169/4/3
f 176/4/3 171/4/3 175/4/3
f 177/6/3 173/6/3 172/6/3
f 177/4/3 171/4/3 176/4/3
f 177/6/3 172/6/3 171/6/3
f 178/4/3 174/4/3 173/4/3
f 178/6/3 173/6/3 177/6/3
f 179/6/3 176/6/3 175/6/3
f 179/4/3 175/4/3 161/4/3
f 180/4/3 177/4/3 176/4/3
f 180/6/3 176/6/3 179/6/3
f 180/4/3 178/4/3 177/4/3
f 181/4/3 179/4/3 161/4/3
f 181/4/3 180/4/3 179/4/3
f 182/4/3 154/4/3 158/4/3
f 182/4/3 180/4/3 181/4/3
f 182/4/3 132/4/3 154/4/3
f 182/4/3 178/4/3 180/4/3
f 182/4/3 158/4/3 174/4/3
f 182/4/3 174/4/3 178/4/3
f 185/4/3 184/4/3 183/4/3
f 186/4/3 184/4/3 185/4/3
f 189/4/3 188/4/3 187/4/3
f 190/4/3 188/4/3 189/4/3
f 191/4/4 192/4/4 193/4/4
f 193/4/4 192/4/4 194/4/4
f 195/4/4 196/4/4 197/4/4
f 197/4/4 196/4/4 198/4/4
f 199/4/4 200/4/4 201/4/4
f 201/4/4 200/4/4 202/4/4
f 199/4/4 201/4/4 203/4/4
f 201/6/4 202/6/4 203/6/4
f 202/4/4 200/4/4 204/4/4
f 203/6/4 202/6/4 204/6/4
f 204/4/4 200/4/4 205/4/4
f 205/4/4 200/4/4 206/4/4
f 203/4/4 204/4/4 207/4/4
f 204/4/4 205/4/4 207/4/4
f 207/4/4 205/4/4 208/4/4
f 205/6/4 206/6/4 209/6/4
f 208/4/4 205/4/4 209/4/4
f 209/6/4 206/6/4 210/6/4
f 206/4/4 200/4/4 211/4/4
f 210/6/4 206/6/4 211/6/4
f 211/4/4 200/4/4 212/4/4
f 207/5/4 208/5/4 213/5/4
f 209/4/4 210/4/4 214/4/4
f 213/5/4 208/5/4 214/5/4
f 208/4/4 209/4/4 214/4/4
f 211/6/4 212/6/4 215/6/4
f 214/4/4 210/4/4 215/4/4
f 210/6/4 211/6/4 215/6/4
f 215/6/4 212/6/4 216/6/4
f 212/4/4 200/4/4 217/4/4
f 216/6/4 212/6/4 217/6/4
f 217/4/4 200/4/4 218/4/4
f 199/4/4 203/4/4 219/4/4
f 203/4/4 207/4/4 219/4/4
f 219/4/4 207/4/4 220/4/4
f 207/5/4 213/5/4 221/5/4
f 220/4/4 207/4/4 221/4/4
f 215/4/4 216/4/4 222/4/4
f 221/5/4 213/5/4 222/5/4
f 213/4/4 214/4/4 222/4/4
f 214/4/4 215/4/4 222/4/4
f 217/6/4 218/6/4 223/6/4
f 222/4/4 216/4/4 223/4/4
f 216/6/4 217/6/4 223/6/4
f 218/4/4 200/4/4 224/4/4
f 223/6/4 218/6/4 224/6/4
f 219/6/4 220/6/4 225/6/4
f 222/4/4 223/4/4 226/4/4
f 225/6/4 220/6/4 226/6/4
f 220/4/4 221/4/4 226/4/4
f 223/4/4 224/4/4 226/4/4
f 221/4/4 222/4/4 226/4/4
f 225/4/4 226/4/4 227/4/4
f 226/4/4 224/4/4 227/4/4
f 227/4/4 224/4/4 228/4/4
f 225/4/4 227/4/4 229/4/4
f 229/4/4 227/4/4 230/4/4
f 227/6/4 228/6/4 231/6/4
f 230/4/4 227/4/4 231/4/4
f 231/6/4 228/6/4 232/6/4
f 228/4/4 224/4/4 233/4/4
f 232/6/4 228/6/4 233/6/4
f 233/4/4 224/4/4 234/4/4
f 234/4/4 224/4/4 235/4/4
f 224/4/4 200/4/4 236/4/4
f 235/4/4 224/4/4 236/4/4
f 225/4/4 229/4/4 237/4/4
f 229/6/4 230/6/4 238/6/4
f 237/4/4 229/4/4 238/4/4
f 231/4/4 232/4/4 239/4/4
f 230/4/4 231/4/4 239/4/4
f 232/6/4 233/6/4 239/6/4
f 233/6/4 234/6/4 239/6/4
f 234/4/4 235/4/4 240/4/4
f 239/6/4 234/6/4 240/6/4
f 235/6/4 236/6/4 241/6/4
f 240/4/4 235/4/4 241/4/4
f 236/4/4 200/4/4 242/4/4
f 241/6/4 236/6/4 242/6/4
f 242/4/4 200/4/4 243/4/4
f 225/4/4 237/4/4 244/4/4
f 237/6/4 238/6/4 244/6/4
f 230/4/4 239/4/4 245/4/4
f 244/6/4 238/6/4 245/6/4
f 238/6/4 230/6/4 245/6/4
f 241/4/4 242/4/4 245/4/4
f 239/4/4 240/4/4 245/4/4
f 240/4/4 241/4/4 245/4/4
f 242/6/4 243/6/4 246/6/4
f 245/4/4 242/4/4 246/4/4
f 243/4/4 200/4/4 247/4/4
f 246/6/4 243/6/4 247/6/4
f 225/4/4 244/4/4 248/4/4
f 244/4/4 245/4/4 248/4/4
f 246/4/4 247/4/4 248/4/4
f 245/4/4 246/4/4 248/4/4
f 247/4/4 200/4/4 249/4/4
f 248/4/4 247/4/4 249/4/4
f 255/4/5 251/4/5 250/4/5
f 256/6/5 252/6/5 251/6/5
f 256/4/5 251/4/5 255/4/5
f 257/4/5 253/4/5 252/4/5
f 257/6/5 252/6/5 256/6/5
f 258/4/5 253/4/5 257/4/5
f 260/4/5 255/4/5 254/4/5
f 261/2/5 256/2/5 255/2/5
f 261/4/5 255/4/5 260/4/5
f 261/2/5 257/2/5 256/2/5
f 261/2/5 258/2/5 257/2/5
f 262/2/5 258/2/5 261/2/5
f 263/2/5 258/2/5 262/2/5
f 264/4/5 259/4/5 258/4/5
f 264/2/5 258/2/5 263/2/5
f 265/4/5 259/4/5 264/4/5
f 266/4/5 262/4/5 261/4/5
f 267/6/5 263/6/5 262/6/5
f 267/4/5 262/4/5 266/4/5
f 268/4/5 264/4/5 263/4/5
f 268/6/5 263/6/5 267/6/5
f 269/4/5 264/4/5 268/4/5
f 270/4/6 271/4/6 273/4/6
f 273/4/6 271/4/6 274/4/6
f 273/1/6 274/1/6 276/1/6
f 276/1/6 274/1/6 277/1/6
f 276/3/6 277/3/6 278/3/6
f 278/3/6 277/3/6 279/3/6
f 278/1/6 279/1/6 280/1/6
f 280/1/6 279/1/6 281/1/6
f 280/3/6 281/3/6 282/3/6
f 282/3/6 281/3/6 283/3/6
f 282/1/6 283/1/6 284/1/6
f 284/1/6 283/1/6 285/1/6
f 284/3/6 285/3/6 286/3/6
f 286/3/6 285/3/6 287/3/6
f 284/3/6 286/3/6 288/3/6
f 286/1/6 287/1/6 288/1/6
f 287/3/6 285/3/6 289/3/6
f 288/1/6 287/1/6 289/1/6
f 282/1/6 284/1/6 290/1/6
f 284/3/6 288/3/6 290/3/6
f 288/3/6 289/3/6 290/3/6
f 289/3/6 285/3/6 291/3/6
f 290/3/6 289/3/6 291/3/6
f 285/1/6 283/1/6 291/1/6
f 280/3/6 282/3/6 292/3/6
f 282/1/6 290/1/6 292/1/6
f 290/1/6 291/1/6 292/1/6
f 291/1/6 283/1/6 293/1/6
f 292/1/6 291/1/6 293/1/6
f 283/3/6 281/3/6 293/3/6
f 278/1/6 280/1/6 294/1/6
f 280/3/6 292/3/6 294/3/6
f 292/3/6 293/3/6 294/3/6
f 293/3/6 281/3/6 295/3/6
f 294/3/6 293/3/6 295/3/6
f 281/1/6 279/1/6 295/1/6
f 276/3/6 278/3/6 296/3/6
f 278/1/6 294/1/6 296/1/6
f 294/1/6 295/1/6 296/1/6
f 295/1/6 279/1/6 297/1/6
f 296/1/6 295/1/6 297/1/6
f 279/3/6 277/3/6 297/3/6
f 273/1/6 276/1/6 298/1/6
f 276/3/6 296/3/6 298/3/6
f 296/3/6 297/3/6 298/3/6
f 297/3/6 277/3/6 299/3/6
f 298/3/6 297/3/6 299/3/6
f 277/1/6 274/1/6 299/1/6
f 272/4/6 273/4/6 300/4/6
f 273/1/6 298/1/6 301/1/6
f 300/4/6 273/4/6 301/4/6
f 298/1/6 299/1/6 301/1/6
f 299/1/6 274/1/6 302/1/6
f 301/1/6 299/1/6 302/1/6
f 274/4/6 275/4/6 302/4/6
f 302/4/6 275/4/6 303/4/6
f 301/4/6 302/4/6 304/4/6
f 304/4/6 302/4/6 305/4/6
