# MagicaVoxel @ Ephtracy

# group
o 

# material
mtllib hero_right_hand.mtl
usemtl palette

# normals
vn -1 0 0
vn 1 0 0
vn 0 0 1
vn 0 0 -1
vn 0 -1 0
vn 0 1 0

# texcoords
vt 0.0605469 0.5
vt 0.986328 0.5

# verts
v -1.2 0.1 -0.3
v -1.2 0.1 -0.6
v -1.2 0.4 -0.3
v -1.2 0.4 -0.6
v -0.9 0.1 -0.3
v -0.9 0.1 -0.4
v -0.9 0.4 -0.3
v -0.9 0.4 -0.4
v -0.6 0 -0.3
v -0.6 0 -0.6
v -0.6 0.1 -0.2
v -0.6 0.1 -0.3
v -0.6 0.1 -0.6
v -0.6 0.1 -0.7
v -0.6 0.4 -0.2
v -0.6 0.4 -0.3
v -0.6 0.4 -0.6
v -0.6 0.4 -0.7
v -0.6 0.5 -0.3
v -0.6 0.5 -0.6
v 0.7 0 -0.6
v 0.7 0 -0.7
v 0.7 0.1 -0.6
v 0.7 0.1 -0.7
v 0.8 0 -0.2
v 0.8 0 -0.3
v 0.8 0.1 -0.2
v 0.8 0.1 -0.3
v -1 0.1 -0.3
v -1 0.1 -0.4
v -1 0.4 -0.3
v -1 0.4 -0.4
v 0.9 0 -0.2
v 0.9 0 -0.7
v 0.9 0.4 -0.2
v 0.9 0.4 -0.3
v 0.9 0.4 -0.6
v 0.9 0.4 -0.7
v 0.9 0.5 -0.3
v 0.9 0.5 -0.6
v -0.6 0.1 -0.2
v -0.6 0.4 -0.2
v 0.8 0 -0.2
v 0.8 0.1 -0.2
v 0.9 0 -0.2
v 0.9 0.4 -0.2
v -1.2 0.1 -0.3
v -1.2 0.4 -0.3
v -1 0.1 -0.3
v -1 0.4 -0.3
v -0.9 0.1 -0.3
v -0.9 0.4 -0.3
v -0.6 0 -0.3
v -0.6 0.1 -0.3
v -0.6 0.4 -0.3
v -0.6 0.5 -0.3
v 0.8 0 -0.3
v 0.8 0.1 -0.3
v 0.9 0.4 -0.3
v 0.9 0.5 -0.3
v -1 0.1 -0.4
v -1 0.4 -0.4
v -0.9 0.1 -0.4
v -0.9 0.4 -0.4
v -1.2 0.1 -0.6
v -1.2 0.4 -0.6
v -0.6 0 -0.6
v -0.6 0.1 -0.6
v -0.6 0.4 -0.6
v -0.6 0.5 -0.6
v 0.7 0 -0.6
v 0.7 0.1 -0.6
v 0.9 0.4 -0.6
v 0.9 0.5 -0.6
v -0.6 0.1 -0.7
v -0.6 0.4 -0.7
v 0.7 0 -0.7
v 0.7 0.1 -0.7
v 0.9 0 -0.7
v 0.9 0.4 -0.7
v 0.8 0 -0.2
v 0.9 0 -0.2
v -0.6 0 -0.3
v 0.8 0 -0.3
v -0.6 0 -0.6
v 0.7 0 -0.6
v 0.7 0 -0.7
v 0.9 0 -0.7
v -0.6 0.1 -0.2
v 0.8 0.1 -0.2
v -1.2 0.1 -0.3
v -1 0.1 -0.3
v -0.9 0.1 -0.3
v -0.6 0.1 -0.3
v 0.8 0.1 -0.3
v -1 0.1 -0.4
v -0.9 0.1 -0.4
v -1.2 0.1 -0.6
v -0.6 0.1 -0.6
v 0.7 0.1 -0.6
v -0.6 0.1 -0.7
v 0.7 0.1 -0.7
v -0.6 0.4 -0.2
v 0.9 0.4 -0.2
v -1.2 0.4 -0.3
v -1 0.4 -0.3
v -0.9 0.4 -0.3
v -0.6 0.4 -0.3
v 0.9 0.4 -0.3
v -1 0.4 -0.4
v -0.9 0.4 -0.4
v -1.2 0.4 -0.6
v -0.6 0.4 -0.6
v 0.9 0.4 -0.6
v -0.6 0.4 -0.7
v 0.9 0.4 -0.7
v -0.6 0.5 -0.3
v 0.9 0.5 -0.3
v -0.6 0.5 -0.6
v 0.9 0.5 -0.6

# faces
f 3/1/1 2/1/1 1/1/1
f 4/1/1 2/1/1 3/1/1
f 7/1/1 6/1/1 5/1/1
f 8/1/1 6/1/1 7/1/1
f 12/2/1 10/2/1 9/2/1
f 13/2/1 10/2/1 12/2/1
f 15/2/1 12/2/1 11/2/1
f 16/2/1 12/2/1 15/2/1
f 17/2/1 14/2/1 13/2/1
f 18/2/1 14/2/1 17/2/1
f 19/2/1 17/2/1 16/2/1
f 20/2/1 17/2/1 19/2/1
f 23/2/1 22/2/1 21/2/1
f 24/2/1 22/2/1 23/2/1
f 27/2/1 26/2/1 25/2/1
f 28/2/1 26/2/1 27/2/1
f 29/1/2 30/1/2 31/1/2
f 31/1/2 30/1/2 32/1/2
f 33/2/2 34/2/2 35/2/2
f 35/2/2 34/2/2 36/2/2
f 36/2/2 34/2/2 37/2/2
f 37/2/2 34/2/2 38/2/2
f 36/2/2 37/2/2 39/2/2
f 39/2/2 37/2/2 40/2/2
f 44/2/3 42/2/3 41/2/3
f 45/2/3 44/2/3 43/2/3
f 46/2/3 42/2/3 44/2/3
f 46/2/3 44/2/3 45/2/3
f 49/1/3 48/1/3 47/1/3
f 50/1/3 48/1/3 49/1/3
f 54/1/3 52/1/3 51/1/3
f 55/1/3 52/1/3 54/1/3
f 57/2/3 54/2/3 53/2/3
f 58/2/3 54/2/3 57/2/3
f 59/2/3 56/2/3 55/2/3
f 60/2/3 56/2/3 59/2/3
f 63/1/3 62/1/3 61/1/3
f 64/1/3 62/1/3 63/1/3
f 65/1/4 66/1/4 68/1/4
f 68/1/4 66/1/4 69/1/4
f 67/2/4 68/2/4 71/2/4
f 71/2/4 68/2/4 72/2/4
f 69/2/4 70/2/4 73/2/4
f 73/2/4 70/2/4 74/2/4
f 75/2/4 76/2/4 78/2/4
f 77/2/4 78/2/4 79/2/4
f 78/2/4 76/2/4 80/2/4
f 79/2/4 78/2/4 80/2/4
f 84/2/5 82/2/5 81/2/5
f 85/2/5 84/2/5 83/2/5
f 86/2/5 84/2/5 85/2/5
f 87/2/5 84/2/5 86/2/5
f 88/2/5 82/2/5 84/2/5
f 88/2/5 84/2/5 87/2/5
f 94/2/5 90/2/5 89/2/5
f 95/2/5 90/2/5 94/2/5
f 96/1/5 92/1/5 91/1/5
f 97/1/5 94/1/5 93/1/5
f 98/1/5 96/1/5 91/1/5
f 98/1/5 97/1/5 96/1/5
f 99/1/5 94/1/5 97/1/5
f 99/1/5 97/1/5 98/1/5
f 101/2/5 100/2/5 99/2/5
f 102/2/5 100/2/5 101/2/5
f 103/2/6 104/2/6 108/2/6
f 108/2/6 104/2/6 109/2/6
f 105/1/6 106/1/6 110/1/6
f 107/1/6 108/1/6 111/1/6
f 105/1/6 110/1/6 112/1/6
f 110/1/6 111/1/6 112/1/6
f 111/1/6 108/1/6 113/1/6
f 112/1/6 111/1/6 113/1/6
f 113/2/6 114/2/6 115/2/6
f 115/2/6 114/2/6 116/2/6
f 117/2/6 118/2/6 119/2/6
f 119/2/6 118/2/6 120/2/6
